<svg height="640pt" preserveAspectRatio="xMidYMid meet" viewBox="0 0 480 640" width="480pt" xmlns="http://www.w3.org/2000/svg"><g transform="matrix(.1 0 0 -.1 0 640)"><path d="m3060 4670c-6-11-55-64-110-119-93-93-99-102-90-126 14-36 12-43-5-21-15 20-15 20-30 0-40-54-154-291-155-324 0-13-1-13-10 0-7 11-8 5-3-19 4-25 3-32-6-27-9 6-10 0-5-20 5-17 3-25-3-21-10 7-30-100-20-109 2-3 53 88 112 201 69 133 114 209 127 214 12 4 55 76 119 199 55 106 98 192 95 192s-10-9-16-20z"/><path d="m2910 4573-55-58 58 55c31 30 57 56 57 57 0 8-10-1-60-54z"/><path d="m1625 4172c-22-9-41-20-43-24s-12-8-23-8-43-13-72-30c-30-16-60-30-68-30-18-1-106-57-153-97-45-40-70-97-54-122 9-15 25-19 80-20 38 0 77-5 87-11 10-5 21-6 25-3 3 3 6 1 6-5 0-7 6-12 13-12 25 0 51-63 43-103-4-21-11-37-16-37-6 0-10-7-10-16 0-8-4-13-9-10-4 3-13-6-20-20-6-14-16-22-21-19-6 3-10 2-10-3 0-14-80-13-109 2-14 7-41 14-59 14s-39 5-46 11c-25 21-25-2-1-25 32-29 31-34-3-34-16 0-37-6-47-14-18-13-17-15 20-25 22-5 49-10 60-10 22 0 103-17 148-31 22-7 26-6 19 3-8 9 1 17 31 29 30 13 37 14 23 3-10-8-24-16-30-18s-8-7-5-11c11-12 130 56 139 79 5 12 14 25 22 27 20 8 49 100 46 147-2 37-9 49-48 83l-45 40 33-7c19-4 32-3 32 3 0 5-12 12-27 15-90 18-173 41-173 49 0 6 9 12 20 15s20 14 20 25c0 12 4 17 12 12s9-2 4 12c-4 10-4 16-1 12 4-3 20-2 35 4 21 7 27 14 23 26-5 12-2 14 11 9 11-4 29 2 50 18 18 14 38 25 44 25 7 0 12 4 12 8 0 5 17 16 38 25 22 9 44 28 50 42 14 30 6 31-53 7zm-405-588c0-8-5-12-10-9-6 4-8 11-5 16 9 14 15 11 15-7z"/><path d="m1980 4123c-48-18-66-24-70-25-10 0-84-40-97-52-32-28-43-36-52-36-5 0-13-9-16-20s-10-20-15-20-12-9-15-20c-4-12-16-20-28-21-12 0-16-3-9-6 8-3 3-17-19-44-27-34-31-49-36-116-3-43-6-91-7-108-3-41 36-118 74-145 39-28 141-38 204-20 42 11 114 65 103 77-3 3-12 1-19-3-7-5-20-10-28-12-85-18-142-13-176 14-19 15-19 16 1 10s20-6 1 9c-11 8-24 15-28 15-5 0-6 11-2 24 3 14 0 29-9 38-12 12-13 25-6 64 13 69 29 114 41 114 5 0 8 6 5 13-6 17 97 112 150 137 39 18 57 40 33 40-5 0-10-4-10-10 0-14-27-12-36 3-4 6-3 9 1 4 5-4 17 1 28 10 10 10 22 16 26 14 35-19 65-49 73-72 16-45 29-34 27 22-2 37-7 54-22 64-12 8-16 18-11 26 5 9 2 11-9 6-16-6-41 15-30 26 7 8 4 8-17 0zm-278-325c-7-7-12-8-12-2 0 14 12 26 19 19 2-3-1-11-7-17zm18-143c13-14 19-25 13-25s-18 11-27 25-15 25-13 25 14-11 27-25zm40-112c0-2-13 3-30 12-16 9-30 20-30 26 0 5 14 0 30-13 17-12 30-23 30-25zm-2-33c22-7 23-8 6-9-11-1-29 6-40 15-10 8-13 12-6 9 8-4 26-11 40-15z"/><path d="m2995 4114c-57-21-68-36-71-96-1-29-9-80-17-113s-18-72-21-87c-4-16-13-28-21-28-15 0-33-66-21-77 3-4 6 4 6 16 0 13 4 19 10 16 6-4 8-16 4-27-13-42-31-179-24-183 4-3 10 4 13 15 7 26 37 26 37 0 0-14-5-18-17-13-10 3-15 3-11-2 4-4 3-14-3-21-8-10 8-13 78-13 58 1 87-3 85-10-1-6 2-11 8-11 5 0 10 5 10 11 0 5 4 8 8 5 10-6 64 39 56 47-4 3 4 9 17 12s34 21 46 40c37 57 33 111-15 174-23 31-24 35-8 46 24 18 77 99 66 103-5 2-2 14 7 28 30 46-7 128-72 162-37 19-108 22-150 6zm5-18c0-2-7-7-16-10-8-3-12-2-9 4 6 10 25 14 25 6zm72-27c15-8 19-8 14 0-4 6-2 11 3 11 6 0 11-7 11-15 0-11-13-15-52-16-29-1-41-4-25-6 15-2 27-9 27-15s10-8 26-4c20 5 32 1 51-18 29-29 23-52-8-35-19 10-19 9-9-10 7-14 7-21 0-21-5 0-10-11-10-24 0-19-13-29-80-60-90-41-91-41-84-21 4 8 1 15-4 15-6 0-13-8-15-17-3-10-3 3 0 30 5 60 12 79 27 70 8-4 8-3 0 6-7 8-7 28-1 66 10 53 12 55 46 61 20 3 41 7 46 9 6 2 11 4 13 4 2 1 13-4 24-10zm97-25c25-32 26-44 6-44-8 0-15 6-15 14s-12 24-27 35c-26 19-27 20-6 21 12 0 31-12 42-26zm15-79c-4-8-8-15-10-15s-4 7-4 15 4 15 10 15c5 0 7-7 4-15zm-102-240c10-4 20-16 23-26 8-26-58-88-137-129-68-36-68-36-68-10 0 11-6 20-14 20-17 0-12 48 6 65 8 7 9 6 4-2-4-7-3-13 2-13 6 0 12 17 14 38 4 26 1 40-11 46-13 8-13 10 4 17 23 9 151 4 177-6zm70-59c-6-23-33-68-38-63-3 3 6 39 23 97 7 24 22-8 15-34zm-55-60c-4-30-16-46-34-46-14 0-14 2 2 20 9 10 15 25 12 33s1 14 9 14c9 0 13-9 11-21z"/><path d="m2933 3885c0-8 4-12 9-9s6 10 3 15c-9 13-12 11-12-6z"/><path d="m2168 4111c11-7 11-9-2-14-9-4-16-1-16 6-1 18-21-20-24-46-2-12-7-30-11-39s-4-22 0-28 0-19-8-28c-15-18-20-55-5-46 4 3 8-2 8-10 0-9-4-16-9-16s-11-9-14-20 0-20 5-20c6 0 5-6-2-15s-13-30-12-48c0-17-5-39-12-47-16-18-14-66 3-62 6 1 11-7 11-18s-7-20-15-20c-17 0-36-39-27-54 3-5 11-1 18 9 12 16 13 14 12-19-1-20-5-39-10-42-11-7-10-44 1-44 18 0 29 27 42 98 7 40 16 75 21 78s18-5 29-18c46-54 98-106 113-111 9-4 15-12 14-19-2-7 2-12 8-11 7 1 28-13 47-32 20-19 39-35 42-35 4 0 27-22 53-48s55-51 65-55c63-24-16-27-727-27h-743l-33-22c-19-13-45-45-59-73-24-45-26-60-26-170s2-125 26-170c14-28 40-60 59-72l33-23h1301c1275 0 1302 0 1333 20 18 11 44 42 60 72 26 49 28 61 28 173s-2 124-28 173c-51 97-14 92-627 93l-535 1-87 96c-48 54-121 133-163 178l-75 81 55 28c70 35 121 92 136 150 6 24 15 42 20 39s9-2 10 3c0 4 3 17 5 28 16 69 13 87-19 119-18 17-43 37-57 43-62 28-250 59-212 34zm149-95c48-24 66-56 57-103-8-45-55-107-93-122-26-11-97-18-105-10-2 2-1 23 3 46 5 27 4 46-3 53-8 8-6 9 8 4s17-4 12 5c-4 6-2 18 4 26 7 8 9 15 4 15s-4 4 2 8c7 4 14 27 17 52s6 45 6 45c38 0 62-5 88-19zm-122-44-7-27-9 24c-6 16-5 28 3 38 16 20 22 2 13-35zm-80-32c3-5 1-10-4-10-6 0-11 5-11 10 0 6 2 10 4 10 3 0 8-4 11-10zm-160-689c96-56 111-242 26-331-62-66-168-74-228-18-88 80-83 274 8 339 60 42 133 46 194 10zm1009-4c22-15 24-20 14-36-11-18-12-18-42 0-58 35-136 15-136-36 0-26 30-50 100-80 95-40 121-76 104-143-22-88-167-114-247-44-16 14-16 17-1 33s17 16 51-7c41-28 103-32 127-9 46 47 22 94-63 125-79 29-121 70-121 120 0 46 30 87 73 98 40 10 108 0 141-21zm-1716-69 3-88h89 90v91c0 88 1 90 23 87s22-4 25-200l2-198h-25c-25 0-25 0-25 90v90h-90-90v-90c0-89 0-90-25-90h-25v201 200l23-3c21-3 22-8 25-90zm1052-70c6-187 9-193 95-193s89 6 95 193c5 155 5 157 28 160l23 4-3-170c-3-163-4-171-27-196-42-44-144-54-212-20-40 20-49 61-49 231 0 154 0 154 23 151 21-3 22-7 27-160zm1118 135c3-22 1-23-82-23h-86v-60-59l68-3c52-2 67-6 67-18s-15-16-67-18l-68-3v-74-75h91c81 0 90-2 87-17-3-16-18-18-111-21l-107-3v195 195l83 4c121 5 122 5 125-20z"/><path d="m1804 3211c-60-36-81-147-45-228 31-68 97-91 157-54 40 25 64 77 64 142 0 126-86 195-176 140z"/><path d="m3328 4113c7-3 16-2 19 1 4 3-2 6-13 5-11 0-14-3-6-6z"/><path d="m3401 4115c-1-5-14-10-31-11-34-1-63-22-56-40 5-13-48-37-58-27-3 4-6-1-6-10 0-13 9-17 36-17h36l-7-67c-9-105-20-131-57-135-42-4-47-26-9-39 34-12 37-25 22-124-4-27-4-77 0-110l6-60 2 63c0 34 4 62 9 62 14 0 33-41 27-59-4-13 4-19 37-28 52-13 153-11 191 5 26 11 38 42 17 42-16 0-11 28 6 38 12 7 13 11 4 17-18 11-123 14-166 5-21-5-41-7-44-5-4 2-2 27 3 54 10 46 14 51 51 65 23 8 52 17 66 20 44 9 92 25 106 36 7 7 18 9 24 5 5-3 10-2 10 3 0 4 10 19 21 31 18 19 19 25 8 32-7 4-16 4-19 0s-16-6-30-4c-14 3-65 4-114 3l-88-2 7 64c4 34 9 66 11 69 3 6 108 30 146 34 10 0 21 4 24 8 4 4 18 7 31 7 14 0 33 5 44 11 17 9 18 13 8 26-11 13-9 14 17 11 40-4 42 15 2 25-29 8-157 5-245-5-18-2-35 1-37 6-3 7-5 7-5 1zm-16-115c3-5-1-10-9-10-9 0-16 5-16 10 0 6 4 10 9 10 6 0 13-4 16-10zm-24-24c5 3 9 1 9-4 0-6-7-12-15-16-11-4-15 1-14 17 0 12 3 16 6 9 2-6 9-10 14-6zm-16-73c0-20 4-27 15-25 8 2 11 0 7-5-5-4-10-6-11-3-2 3-10-1-18-8-13-10-15-8-11 15 9 57 19 71 18 26zm12-175c-3-8-6-5-6 6-1 11 2 17 5 13 3-3 4-12 1-19zm-43-28c-6-6-10-3-10 10s4 16 10 10c7-7 7-13 0-20zm1-40c-7-23 5-26 24-7 10 10 11 8 5-8-8-22-23-35-41-35-16 0-17 24-3 51 14 25 23 25 15-1z"/><path d="m3690 4058c0-4 9-8 20-8s20 4 20 9c0 6-9 9-20 8s-20-5-20-9z"/><path d="m2871 3884c0-11 3-14 6-6 3 7 2 16-1 19-3 4-6-2-5-13z"/><path d="m2861 3824c0-11 3-14 6-6 3 7 2 16-1 19-3 4-6-2-5-13z"/><path d="m2821 3639c-7-34-10-63-8-66 5-4 10 16 23 90 10 62-2 42-15-24z"/><path d="m2030 3660c0-5 5-10 11-10 5 0 7 5 4 10-3 6-8 10-11 10-2 0-4-4-4-10z"/><path d="m2460 3534c-11-31-19-58-17-61 5-4 77 98 77 110 0 4-9 7-19 7-15 0-25-15-41-56z"/></g></svg>